<svg width="24" height="24" viewBox="0 0 24 24" fill="none" xmlns="http://www.w3.org/2000/svg">
<path fill-rule="evenodd" clip-rule="evenodd" d="M8.49574 3H6.60006L10.5559 9.89075C11.1973 11.008 12.8022 11.008 13.4436 9.89075L17.3994 3L15.5037 3L12.0204 9.06772C12.0109 9.08429 11.9886 9.08428 11.9791 9.06772L8.49574 3ZM21.0539 13.044L22 11.4135L14.0434 11.4086C12.7547 11.4052 11.9522 12.7944 12.5996 13.9082L16.5921 20.7778L17.54 19.1369L14.0243 13.0878C14.0147 13.0713 14.0229 13.044 14.0555 13.044L21.0539 13.044ZM7.39968 20.7779L6.45184 19.1369L9.96753 13.0879C9.97713 13.0714 9.97717 13.0441 9.93842 13.0441H2.94617L2 11.4136L9.94838 11.4087C11.2371 11.4052 12.0396 12.7945 11.3922 13.9083L7.39968 20.7779Z" fill="url(#paint0_linear_353_646)"/>
<defs>
<linearGradient id="paint0_linear_353_646" x1="5.27869" y1="-0.634402" x2="17.2325" y2="20.7217" gradientUnits="userSpaceOnUse">
<stop stop-color="#00FFFF"/>
<stop offset="0.484375" stop-color="#EB39FB"/>
<stop offset="1" stop-color="#FF488A"/>
</linearGradient>
</defs>
</svg>
